<?xml version="1.0" encoding="UTF-8" standalone="no"?>
<!-- Created with Inkscape (http://www.inkscape.org/) -->

<svg
   version="1.1"
   id="svg1"
   width="1190"
   height="300"
   viewBox="0 0 1190 300"
   sodipodi:docname="iLovePDF_logo.svg"
   inkscape:version="1.3.2 (091e20ef0f, 2023-11-25, custom)"
   xmlns:inkscape="http://www.inkscape.org/namespaces/inkscape"
   xmlns:sodipodi="http://sodipodi.sourceforge.net/DTD/sodipodi-0.dtd"
   xmlns="http://www.w3.org/2000/svg"
   xmlns:svg="http://www.w3.org/2000/svg">
  <defs
     id="defs1" />
  <sodipodi:namedview
     id="namedview1"
     pagecolor="#ffffff"
     bordercolor="#cccccc"
     borderopacity="1"
     inkscape:showpageshadow="0"
     inkscape:pageopacity="1"
     inkscape:pagecheckerboard="0"
     inkscape:deskcolor="#d1d1d1"
     inkscape:zoom="0.56150511"
     inkscape:cx="253.78219"
     inkscape:cy="42.742264"
     inkscape:window-width="1920"
     inkscape:window-height="1008"
     inkscape:window-x="0"
     inkscape:window-y="0"
     inkscape:window-maximized="1"
     inkscape:current-layer="g1" />
  <g
     inkscape:groupmode="layer"
     inkscape:label="Image"
     id="g1">
    <g
       id="g4">
      <rect
         style="opacity:0.99;fill:#ffffff;fill-opacity:1;stroke-width:53.5867;stroke-linecap:round;stroke-linejoin:round"
         id="rect3"
         width="1190"
         height="300"
         x="0"
         y="0" />
      <g
         id="g3"
         transform="matrix(1.7111181,0,0,1.7111181,37.651892,-274.45404)">
        <path
           style="fill:#000000"
           d="m 28.72159,298.14689 v -8 h 3.277494 c 1.802622,0 4.277622,-0.70052 5.5,-1.5567 l 2.222507,-1.55671 v -38.38659 -38.3866 l -2.222507,-1.5567 c -1.222378,-0.85619 -3.697378,-1.55671 -5.5,-1.55671 H 28.72159 v -8.5 -8.5 h 27.500001 27.5 v 8.36995 8.36995 l -4.689188,0.52854 c -2.879722,0.32458 -5.195004,1.22028 -6,2.32118 -1.911272,2.61382 -1.911272,75.20695 0,77.82077 0.804996,1.1009 3.120278,1.9966 6,2.32119 l 4.689188,0.52853 v 7.86995 7.86995 h -27.5 -27.500001 z m 264,0 v -8 h 2.88922 c 1.58906,0 3.95156,-0.85986 5.25,-1.91079 l 2.36078,-1.91079 0.28522,-37.09945 0.28522,-37.09944 -2.48976,-2.48977 c -1.56298,-1.56298 -3.62341,-2.48977 -5.53523,-2.48977 h -3.04545 v -8.5 -8.5 l 30.75,0.0349 c 39.61404,0.045 47.05674,1.2485 58.17049,9.40675 8.36976,6.14397 13.04673,19.06588 11.60322,32.05836 -2.31209,20.81036 -18.32406,31.50001 -47.18367,31.50001 h -11.34004 v 13.5 13.5 h 6.5 6.5 v 8 8 h -27.5 -27.5 z m 60.89917,-53.75221 c 5.54073,-2.73163 7.60083,-7.27088 7.60083,-16.7478 0,-13.6297 -4.46904,-18.27575 -18.50487,-19.23778 l -7.99513,-0.548 v 19.78963 19.78963 l 7.67701,-0.64895 c 4.22236,-0.35692 9.27233,-1.43545 11.22216,-2.39673 z m 50.10083,53.75221 v -8 h 3.04545 c 1.90012,0 3.96857,-0.92311 5.5,-2.45455 l 2.45455,-2.45454 v -36.59091 -36.59092 l -2.45455,-2.45454 c -1.53143,-1.53144 -3.59988,-2.45455 -5.5,-2.45455 h -3.04545 v -8.59034 -8.59035 l 33.75,0.42403 c 30.60385,0.3845 34.47841,0.62368 41.56395,2.56579 19.94767,5.46755 31.81788,17.20313 36.34415,35.93194 2.25827,9.3443 2.26662,28.69282 0.0161,37.25894 -4.17531,15.89217 -13.11329,27.02328 -26.87924,33.47465 -12.25565,5.74356 -18.69567,6.52535 -53.7528,6.52535 h -31.04216 z m 64.93309,-12.71425 c 6.68997,-3.34787 11.33099,-9.09599 13.80829,-17.10219 1.36154,-4.40025 1.74616,-9.07046 1.70346,-20.68356 -0.0487,-13.24279 -0.32644,-15.68893 -2.3708,-20.88084 -4.77356,-12.12302 -12.58137,-17.25175 -27.09717,-17.79937 l -8.47687,-0.3198 -0.26147,40.39935 -0.26148,40.39934 8.69468,-0.61359 c 6.6726,-0.47089 9.98929,-1.26146 14.26136,-3.39934 z m 59.06691,12.84592 v -7.86833 l 4.21491,-0.56534 c 2.32974,-0.31248 4.78969,-1.35139 5.5,-2.3228 1.86598,-2.55187 1.86598,-75.19854 0,-77.75041 -0.71031,-0.97141 -3.17026,-2.01031 -5.5,-2.3228 l -4.21491,-0.56534 v -8.36833 -8.36833 h 47.5 47.5 v 18.03753 18.03752 l -9.25,-0.28752 -9.25,-0.28753 -1.40375,-8.25 -1.40374,-8.25 h -15.84626 -15.84625 v 16 16.00001 h 7.88478 7.88477 l 0.68718,-5.5 0.68718,-5.50001 h 8.42805 8.42804 v 20.50001 20.5 h -8.45034 -8.45035 l -0.68331,-6.03966 -0.68331,-6.03966 -7.61634,0.28966 -7.61635,0.28966 v 15 15 l 6.75,0.29569 6.75,0.29569 v 7.95431 7.95431 h -28 -28 z"
           id="path2"
           sodipodi:nodetypes="ccsscccsscccccccssssccccccccsscccsscccssssccccccccccssscccssccsscccsscccssssssccssssscccssccsssscccccccccccccccccccccccccccccccccccccc" />
        <path
           d="m 176.88264,313.15341 c -8.77108,-13.4004 -26.64901,-30.39733 -44.49236,-42.29985 -17.79483,-11.87015 -26.28718,-19.926 -31.11785,-29.51844 -13.621722,-27.04913 0.77468,-57.88615 30.59046,-65.5246 10.83662,-2.77621 24.19576,-0.19852 34.05434,6.5709 4.8114,3.30376 11.75956,10.66589 14.81439,15.69703 1.0173,1.67543 1.32818,1.5382 3.79448,-1.67505 4.09579,-5.33626 13.44291,-14.32458 16.58305,-15.9465 l 2.80052,-1.44651 30.10697,30.10698 30.10698,30.10698 -1.37132,3.31066 c -2.60275,6.28358 -14.46009,17.31636 -30.10078,28.00755 -22.85432,15.62208 -36.52027,28.813 -46.35067,44.7395 -2.07807,3.36674 -3.8323,6.12135 -3.89829,6.12135 -0.066,0 -2.54995,-3.7125 -5.51992,-8.25 z"
           style="fill:#ffffff;fill-opacity:1"
           id="path3"
           sodipodi:nodetypes="sssssssscccsssss" />
        <path
           d="m 176.88264,313.15341 c -8.77108,-13.4004 -26.64901,-30.39733 -44.49236,-42.29985 -17.79483,-11.87015 -26.28718,-19.926 -31.11785,-29.51844 -13.621722,-27.04913 0.77468,-57.88615 30.59046,-65.5246 10.83662,-2.77621 24.19576,-0.19852 34.05434,6.5709 4.8114,3.30376 11.75956,10.66589 14.81439,15.69703 1.0173,1.67543 1.32818,1.5382 3.79448,-1.67505 4.09579,-5.33626 13.44291,-14.32458 16.58305,-15.9465 l 2.80052,-1.44651 30.10697,30.10698 30.10698,30.10698 -1.37132,3.31066 c -2.60275,6.28358 -14.46009,17.31636 -30.10078,28.00755 -22.85432,15.62208 -36.52027,28.813 -46.35067,44.7395 -2.07807,3.36674 -3.8323,6.12135 -3.89829,6.12135 -0.066,0 -2.54995,-3.7125 -5.51992,-8.25 z m 81.92417,-72.0067 c 0,-0.14118 -12.6,-12.85067 -28,-28.24331 l -28,-27.9866 v 28.2433 28.24331 h 28 c 15.4,0 28,-0.11552 28,-0.2567 z"
           style="fill:#e5322d;fill-opacity:1"
           id="path1" />
      </g>
    </g>
  </g>
</svg>
